# Exported from ProBuilder
# http://www.procore3d.com/probuilder
# 1/4/2021 2:38:50 PM

mtllib ./Cheese.mtl
o Cheese

g Cheese
v 8.576688 3.687883 15.30933
v 8.772974 4.473032 15.30933
v 9.132833 5.258181 15.30933
v 9.427265 6.174188 15.30933
v 9.39455 7.090196 15.30933
v 10.01613 7.613627 15.30933
v 10.76856 7.613627 15.30933
v 11.88086 7.580914 15.30933
v 12.92772 7.515484 15.30933
v 14.13816 7.450055 15.30933
v 15.11959 7.253767 15.30933
v 15.34859 6.893908 15.30933
v 15.21774 6.566762 15.30933
v 14.95602 6.108759 15.30933
v 14.93093 5.8822 15.30933
v 14.84931 5.585363 15.30933
v 14.89059 5.32361 15.30933
v 14.98874 4.571176 15.30933
v 14.89059 4.015028 15.30933
v 14.72702 3.16445 15.30933
v 13.7783 2.771876 15.30933
v 12.92772 2.51016 15.30933
v 11.94628 2.444731 15.30933
v 10.37599 2.673732 15.30933
v 9.329123 2.968163 15.30933
v 15.21774 6.566762 19.4259
v 15.34859 6.893908 19.4259
v 15.11959 7.253767 19.4259
v 14.13816 7.450055 19.4259
v 14.95602 6.108759 19.4259
v 14.93093 5.8822 19.4259
v 14.84931 5.585363 19.4259
v 12.92772 7.515484 19.4259
v 14.89059 5.32361 19.4259
v 14.89059 4.015028 19.4259
v 14.98874 4.571176 19.4259
v 14.72702 3.16445 19.4259
v 13.7783 2.771876 19.4259
v 12.92772 2.51016 19.4259
v 11.88086 7.580914 19.4259
v 11.94628 2.444731 19.4259
v 9.427265 6.174188 19.4259
v 9.132833 5.258181 19.4259
v 10.37599 2.673732 19.4259
v 8.772974 4.473032 19.4259
v 9.329123 2.968163 19.4259
v 8.576688 3.687883 19.4259
v 10.76856 7.613627 19.4259
v 10.01613 7.613627 19.4259
v 9.39455 7.090196 19.4259
v 9.39455 7.090196 15.30933
v 10.01613 7.613627 15.30933
v 9.39455 7.090196 19.4259
v 10.01613 7.613627 19.4259
v 9.427265 6.174188 15.30933
v 9.39455 7.090196 15.30933
v 9.427265 6.174188 19.4259
v 9.39455 7.090196 19.4259
v 10.01613 7.613627 15.30933
v 10.76856 7.613627 15.30933
v 10.01613 7.613627 19.4259
v 10.76856 7.613627 19.4259
v 10.76856 7.613627 15.30933
v 11.88086 7.580914 15.30933
v 10.76856 7.613627 19.4259
v 11.88086 7.580914 19.4259
v 8.576688 3.687883 15.30933
v 8.772974 4.473032 15.30933
v 8.576688 3.687883 19.4259
v 8.772974 4.473032 19.4259
v 9.329123 2.968163 15.30933
v 8.576688 3.687883 15.30933
v 9.329123 2.968163 19.4259
v 8.576688 3.687883 19.4259
v 10.37599 2.673732 15.30933
v 9.329123 2.968163 15.30933
v 10.37599 2.673732 19.4259
v 9.329123 2.968163 19.4259
v 8.772974 4.473032 15.30933
v 9.132833 5.258181 15.30933
v 8.772974 4.473032 19.4259
v 9.132833 5.258181 19.4259
v 11.94628 2.444731 15.30933
v 10.37599 2.673732 15.30933
v 11.94628 2.444731 19.4259
v 10.37599 2.673732 19.4259
v 9.132833 5.258181 15.30933
v 9.427265 6.174188 15.30933
v 9.132833 5.258181 19.4259
v 9.427265 6.174188 19.4259
v 12.92772 2.51016 15.30933
v 11.94628 2.444731 15.30933
v 12.92772 2.51016 19.4259
v 11.94628 2.444731 19.4259
v 11.88086 7.580914 15.30933
v 12.92772 7.515484 15.30933
v 11.88086 7.580914 19.4259
v 12.92772 7.515484 19.4259
v 13.7783 2.771876 15.30933
v 12.92772 2.51016 15.30933
v 13.7783 2.771876 19.4259
v 12.92772 2.51016 19.4259
v 14.72702 3.16445 15.30933
v 13.7783 2.771876 15.30933
v 14.72702 3.16445 19.4259
v 13.7783 2.771876 19.4259
v 14.89059 4.015028 15.30933
v 14.72702 3.16445 15.30933
v 14.89059 4.015028 19.4259
v 14.72702 3.16445 19.4259
v 14.89059 5.32361 15.30933
v 14.98874 4.571176 15.30933
v 14.89059 5.32361 19.4259
v 14.98874 4.571176 19.4259
v 14.98874 4.571176 15.30933
v 14.89059 4.015028 15.30933
v 14.98874 4.571176 19.4259
v 14.89059 4.015028 19.4259
v 14.84931 5.585363 15.30933
v 14.89059 5.32361 15.30933
v 14.84931 5.585363 19.4259
v 14.89059 5.32361 19.4259
v 12.92772 7.515484 15.30933
v 14.13816 7.450055 15.30933
v 12.92772 7.515484 19.4259
v 14.13816 7.450055 19.4259
v 14.93093 5.8822 15.30933
v 14.84931 5.585363 15.30933
v 14.93093 5.8822 19.4259
v 14.84931 5.585363 19.4259
v 14.95602 6.108759 15.30933
v 14.93093 5.8822 15.30933
v 14.95602 6.108759 19.4259
v 14.93093 5.8822 19.4259
v 15.21774 6.566762 15.30933
v 14.95602 6.108759 15.30933
v 15.21774 6.566762 19.4259
v 14.95602 6.108759 19.4259
v 14.13816 7.450055 15.30933
v 15.11959 7.253767 15.30933
v 14.13816 7.450055 19.4259
v 15.11959 7.253767 19.4259
v 15.11959 7.253767 15.30933
v 15.34859 6.893908 15.30933
v 15.11959 7.253767 19.4259
v 15.34859 6.893908 19.4259
v 15.34859 6.893908 15.30933
v 15.21774 6.566762 15.30933
v 15.34859 6.893908 19.4259
v 15.21774 6.566762 19.4259

vn -5.327374E-08 -1.930245E-08 -1
vn -7.222361E-09 -1.223775E-08 -1
vn 2.403811E-08 1.533018E-08 -1
vn 3.013175E-09 7.119419E-09 -1
vn 2.127833E-07 -1.334714E-07 -1
vn 7.474705E-08 -7.700198E-08 -1
vn -2.859045E-09 -4.375953E-08 -1
vn -1.599601E-08 -6.816663E-10 -1
vn 1.701725E-09 -4.044467E-09 -1
vn 4.111404E-08 -2.705547E-08 -1
vn -1.706524E-07 -2.522103E-07 -1
vn -7.032157E-07 -3.282908E-07 -1
vn -1.557234E-08 -1.143757E-07 -1
vn 1.727891E-07 4.68161E-08 -1
vn 2.143233E-07 7.551286E-08 -1
vn 3.923014E-08 1.971236E-08 -1
vn -2.686859E-08 -1.543084E-08 -1
vn -7.591026E-09 -4.021233E-08 -1
vn -1.598908E-08 -1.81781E-08 -1
vn 2.617708E-09 -2.998889E-09 -1
vn 1.179611E-08 -4.328144E-09 -1
vn 1.072688E-08 1.213479E-09 -1
vn -4.069137E-09 9.655232E-09 -1
vn -1.017395E-08 -2.075128E-08 -1
vn -9.095731E-10 4.953905E-11 -1
vn 3.114468E-08 3.479606E-07 1
vn 1.406431E-06 7.75791E-07 1
vn 3.413047E-07 6.236299E-07 1
vn -8.222808E-08 1.733202E-07 1
vn -3.455782E-07 2.557707E-08 1
vn -4.286466E-07 -3.181644E-08 1
vn -7.846027E-08 7.978455E-08 1
vn -6.447285E-08 -2.770329E-08 1
vn -2.39974E-07 -1.255177E-07 1
vn -2.084499E-07 -1.034177E-07 1
vn 0 -1.192093E-07 1
vn -8.376841E-08 -4.425863E-08 1
vn -3.431595E-08 -2.484042E-08 1
vn -8.581497E-09 -2.481265E-08 1
vn 7.285315E-08 -9.612799E-09 1
vn 7.011459E-08 -5.222481E-08 1
vn 7.954763E-08 3.727955E-09 1
vn 0 -1.192093E-07 1
vn 0 -1.192093E-07 1
vn 0 -1.192093E-07 1
vn 0 -1.192093E-07 1
vn 0 -1.192093E-07 1
vn 5.71809E-09 2.067284E-07 1
vn -1.494941E-07 2.732133E-07 1
vn -4.255666E-07 3.86152E-07 1
vn -0.6441351 0.7649119 2.338087E-09
vn -0.6441351 0.7649119 2.094072E-09
vn -0.6441351 0.7649119 2.582102E-09
vn -0.6441351 0.7649119 2.338087E-09
vn -0.9993629 -0.03569184 -2.130438E-10
vn -0.9993628 -0.03569184 -3.056031E-10
vn -0.9993629 -0.03569184 -1.20484E-10
vn -0.9993629 -0.03569184 -2.130438E-10
vn 0 1 3.375682E-09
vn 0 1 3.375682E-09
vn 0 1 3.375682E-09
vn 0 1 3.375682E-09
vn 0.02939845 0.9995679 3.119589E-09
vn 0.02939845 0.9995679 2.864951E-09
vn 0.02939845 0.9995679 3.374219E-09
vn 0.02939845 0.9995679 3.119589E-09
vn -0.9701428 0.2425344 -2.496506E-09
vn -0.9701428 0.2425344 -2.396432E-09
vn -0.9701428 0.2425344 -2.596579E-09
vn -0.9701428 0.2425344 -2.496506E-09
vn -0.6912225 -0.7226421 -2.574833E-09
vn -0.6912225 -0.7226421 -2.710263E-09
vn -0.6912225 -0.7226421 -2.439411E-09
vn -0.6912225 -0.7226421 -2.574833E-09
vn -0.2707457 -0.962651 -2.416848E-09
vn -0.2707457 -0.962651 -1.584085E-09
vn -0.2707457 -0.962651 -3.249611E-09
vn -0.2707457 -0.962651 -2.416848E-09
vn -0.9090649 0.4166544 -1.25411E-09
vn -0.9090649 0.4166544 -6.240792E-10
vn -0.9090649 0.4166544 -1.884142E-09
vn -0.9090649 0.4166544 -1.25411E-09
vn -0.144307 -0.9895331 -3.62492E-09
vn -0.144307 -0.9895331 -3.909492E-09
vn -0.144307 -0.9895331 -3.34034E-09
vn -0.144307 -0.9895331 -3.62492E-09
vn -0.9520283 0.3060102 -5.462022E-11
vn -0.9520283 0.3060102 -1.14223E-09
vn -0.9520283 0.3060102 1.032993E-09
vn -0.9520283 0.3060102 -5.462022E-11
vn 0.06651911 -0.9977853 -3.195197E-09
vn 0.0665191 -0.9977853 -3.022187E-09
vn 0.06651911 -0.9977853 -3.368207E-09
vn 0.06651911 -0.9977853 -3.195197E-09
vn 0.0623789 0.9980527 3.368534E-09
vn 0.0623789 0.9980527 3.367952E-09
vn 0.0623789 0.9980527 3.36911E-09
vn 0.0623789 0.9980527 3.368534E-09
vn 0.2940858 -0.9557792 -3.670793E-09
vn 0.2940858 -0.9557792 -4.115181E-09
vn 0.2940858 -0.9557792 -3.226405E-09
vn 0.2940858 -0.9557792 -3.670793E-09
vn 0.3823519 -0.9240168 -3.752143E-09
vn 0.3823519 -0.9240168 -4.385102E-09
vn 0.3823519 -0.9240168 -3.119185E-09
vn 0.3823519 -0.9240168 -3.752143E-09
vn 0.9820065 -0.1888471 -4.435128E-10
vn 0.9820065 -0.1888471 -1.616715E-09
vn 0.9820065 -0.1888471 7.296893E-10
vn 0.9820065 -0.1888471 -4.435128E-10
vn 0.9916004 0.1293391 7.719514E-10
vn 0.9916004 0.1293391 1.107296E-09
vn 0.9916004 0.1293391 4.366072E-10
vn 0.9916004 0.1293391 7.719514E-10
vn 0.9847836 -0.1737851 5.651913E-10
vn 0.9847836 -0.1737851 1.717026E-09
vn 0.9847835 -0.1737851 -5.86643E-10
vn 0.9847836 -0.1737851 5.651913E-10
vn 0.9877912 0.1557836 5.838224E-10
vn 0.9877912 0.1557836 6.417671E-10
vn 0.9877912 0.1557836 5.258758E-10
vn 0.9877912 0.1557836 5.838224E-10
vn 0.05397499 0.9985424 2.973622E-09
vn 0.05397499 0.9985424 2.576478E-09
vn 0.05397499 0.9985424 3.370765E-09
vn 0.05397499 0.9985424 2.973622E-09
vn 0.9642169 -0.2651147 -8.168967E-10
vn 0.9642169 -0.2651146 -7.388506E-10
vn 0.9642169 -0.2651147 -8.949427E-10
vn 0.9642169 -0.2651147 -8.168967E-10
vn 0.9939217 -0.1100885 -5.443924E-10
vn 0.9939217 -0.1100885 -7.171617E-10
vn 0.9939217 -0.1100885 -3.716239E-10
vn 0.9939217 -0.1100885 -5.443924E-10
vn 0.8682434 -0.4961384 -2.961138E-09
vn 0.8682434 -0.4961384 -4.247469E-09
vn 0.8682434 -0.4961384 -1.674806E-09
vn 0.8682434 -0.4961384 -2.961138E-09
vn 0.1961166 0.9805807 4.044211E-09
vn 0.1961166 0.9805807 4.778294E-09
vn 0.1961166 0.9805807 3.310135E-09
vn 0.1961166 0.9805807 4.044211E-09
vn 0.8436619 0.5368748 1.082632E-09
vn 0.8436619 0.5368748 3.529545E-10
vn 0.8436619 0.5368748 1.812317E-09
vn 0.8436619 0.5368748 1.082632E-09
vn 0.9284773 -0.3713891 -9.323334E-10
vn 0.9284773 -0.3713891 -6.109763E-10
vn 0.9284773 -0.3713891 -1.253694E-09
vn 0.9284773 -0.3713891 -9.323334E-10

vt 0.01675749 0.7319162
vt 0.04448462 0.6210074
vt 0.0953176 0.5100987
vt 0.1369085 0.3807051
vt 0.1322873 0.2513115
vt 0.2200902 0.1773725
vt 0.3263776 0.1773725
vt 0.4834986 0.1819936
vt 0.6313767 0.191236
vt 0.802361 0.2004784
vt 0.9409969 0.2282057
vt 0.9733453 0.2790388
vt 0.9548607 0.3252507
vt 0.917891 0.3899475
vt 0.9143462 0.4219508
vt 0.9028172 0.4638815
vt 0.9086485 0.5008563
vt 0.9225121 0.6071439
vt 0.9086485 0.6857042
vt 0.8855426 0.8058553
vt 0.751528 0.8613098
vt 0.6313767 0.8982793
vt 0.4927406 0.9075217
vt 0.2709231 0.8751733
vt 0.1230452 0.8335826
vt 0.04334641 0.3067896
vt 0.02501917 0.2609717
vt 0.05709171 0.2105719
vt 0.1945457 0.183081
vt 0.08000064 0.370935
vt 0.08351517 0.4026654
vt 0.09494591 0.4442387
vt 0.3640723 0.1739174
vt 0.08916426 0.4808981
vt 0.08916426 0.6641704
vt 0.07541895 0.5862796
vt 0.1120734 0.7832972
vt 0.2449455 0.8382788
vt 0.3640723 0.8749332
vt 0.51069 0.1647538
vt 0.5015266 0.8840968
vt 0.8543253 0.3617713
vt 0.8955617 0.4900618
vt 0.7214532 0.8520242
vt 0.9459615 0.6000251
vt 0.8680706 0.810788
vt 0.9734521 0.7099884
vt 0.6664715 0.1601721
vt 0.771853 0.1601721
vt 0.8589072 0.2334808
vt -2.817142 6.179126
vt -3.629753 6.179126
vt -2.817142 10.2957
vt -3.629754 10.2957
vt -2.454362 6.179127
vt -3.370954 6.179126
vt -2.454362 10.2957
vt -3.370954 10.2957
vt -1.439439 6.179127
vt -2.191873 6.179127
vt -1.439439 10.2957
vt -2.191873 10.2957
vt -2.075515 6.179127
vt -3.188291 6.179127
vt -2.075515 10.2957
vt -3.188291 10.2957
vt 0 6.179127
vt -0.8093131 6.179127
vt -4.802489E-07 10.2957
vt -0.8093135 10.2957
vt 1.041228 6.179127
vt 0 6.179127
vt 1.041227 10.2957
vt -3.505558E-07 10.2957
vt 2.006673 6.179127
vt 0.9191931 6.179127
vt 2.006673 10.2957
vt 0.9191929 10.2957
vt -0.7955352 6.179127
vt -1.659223 6.179127
vt -0.7955356 10.2957
vt -1.659224 10.2957
vt 3.513721 6.179127
vt 1.926814 6.179127
vt 3.513721 10.2957
vt 1.926814 10.2957
vt -1.665154 6.179126
vt -2.627317 6.179126
vt -1.665155 10.2957
vt -2.627318 10.2957
vt 4.263054 6.179127
vt 3.279439 6.179127
vt 4.263054 10.2957
vt 3.279439 10.2957
vt -3.05489 6.179127
vt -4.103797 6.179127
vt -3.05489 10.2957
vt -4.103797 10.2957
vt 4.702206 6.179127
vt 3.812274 6.179127
vt 4.702206 10.2957
vt 3.812274 10.2957
vt 5.482874 6.179126
vt 4.456139 6.179127
vt 5.482874 10.2957
vt 4.456139 10.2957
vt 1.513621 6.179127
vt 0.6474583 6.179127
vt 1.513622 10.2957
vt 0.6474587 10.2957
vt 0.8053529 6.179127
vt 0.04654482 6.179127
vt 0.8053533 10.2957
vt 0.04654529 10.2957
vt 1.984171 6.179126
vt 1.41943 6.179127
vt 1.984171 10.2957
vt 1.41943 10.2957
vt 0.8971421 6.179127
vt 0.6321543 6.179127
vt 0.8971426 10.2957
vt 0.6321548 10.2957
vt -4.138095 6.179127
vt -5.3503 6.179127
vt -4.138095 10.2957
vt -5.3503 10.2957
vt 3.8004 6.179126
vt 3.492546 6.179126
vt 3.8004 10.2957
vt 3.492547 10.2957
vt 3.108453 6.179126
vt 2.880508 6.179126
vt 3.108453 10.2957
vt 2.880509 10.2957
vt 5.794448 6.179126
vt 5.266942 6.179126
vt 5.794448 10.2957
vt 5.266943 10.2957
vt -4.715645 6.179127
vt -5.716517 6.179127
vt -4.715645 10.2957
vt -5.716517 10.2957
vt -0.5043207 6.179127
vt -0.9308653 6.179127
vt -0.5043203 10.2957
vt -0.9308649 10.2957
vt 5.491734 6.179126
vt 5.139387 6.179126
vt 5.491734 10.2957
vt 5.139388 10.2957

g Cheese_0
usemtl Cheese_Material
f 53/53/53 54/54/54 52/52/52 51/51/51
f 57/57/57 58/58/58 56/56/56 55/55/55
f 61/61/61 62/62/62 60/60/60 59/59/59
f 65/65/65 66/66/66 64/64/64 63/63/63
f 69/69/69 70/70/70 68/68/68 67/67/67
f 73/73/73 74/74/74 72/72/72 71/71/71
f 77/77/77 78/78/78 76/76/76 75/75/75
f 81/81/81 82/82/82 80/80/80 79/79/79
f 85/85/85 86/86/86 84/84/84 83/83/83
f 89/89/89 90/90/90 88/88/88 87/87/87
f 93/93/93 94/94/94 92/92/92 91/91/91
f 97/97/97 98/98/98 96/96/96 95/95/95
f 101/101/101 102/102/102 100/100/100 99/99/99
f 105/105/105 106/106/106 104/104/104 103/103/103
f 109/109/109 110/110/110 108/108/108 107/107/107
f 113/113/113 114/114/114 112/112/112 111/111/111
f 117/117/117 118/118/118 116/116/116 115/115/115
f 121/121/121 122/122/122 120/120/120 119/119/119
f 125/125/125 126/126/126 124/124/124 123/123/123
f 129/129/129 130/130/130 128/128/128 127/127/127
f 133/133/133 134/134/134 132/132/132 131/131/131
f 137/137/137 138/138/138 136/136/136 135/135/135
f 141/141/141 142/142/142 140/140/140 139/139/139
f 145/145/145 146/146/146 144/144/144 143/143/143
f 149/149/149 150/150/150 148/148/148 147/147/147

g Cheese_1
usemtl Cheese_Material
f 11/11/11 12/12/12 13/13/13
f 11/11/11 13/13/13 10/10/10
f 10/10/10 13/13/13 14/14/14
f 10/10/10 14/14/14 15/15/15
f 10/10/10 15/15/15 16/16/16
f 9/9/9 10/10/10 16/16/16
f 9/9/9 16/16/16 17/17/17
f 17/17/17 19/19/19 9/9/9
f 19/19/19 17/17/17 18/18/18
f 19/19/19 20/20/20 9/9/9
f 9/9/9 20/20/20 21/21/21
f 9/9/9 21/21/21 22/22/22
f 8/8/8 9/9/9 22/22/22
f 22/22/22 23/23/23 8/8/8
f 23/23/23 4/4/4 8/8/8
f 23/23/23 3/3/3 4/4/4
f 24/24/24 3/3/3 23/23/23
f 3/3/3 24/24/24 2/2/2
f 24/24/24 25/25/25 2/2/2
f 1/1/1 2/2/2 25/25/25
f 4/4/4 7/7/7 8/8/8
f 4/4/4 6/6/6 7/7/7
f 5/5/5 6/6/6 4/4/4
f 42/42/42 49/49/49 50/50/50
f 48/48/48 49/49/49 42/42/42
f 40/40/40 48/48/48 42/42/42
f 46/46/46 45/45/45 47/47/47
f 45/45/45 46/46/46 44/44/44
f 45/45/45 44/44/44 43/43/43
f 41/41/41 43/43/43 44/44/44
f 42/42/42 43/43/43 41/41/41
f 40/40/40 42/42/42 41/41/41
f 40/40/40 41/41/41 39/39/39
f 39/39/39 33/33/33 40/40/40
f 39/39/39 38/38/38 33/33/33
f 38/38/38 37/37/37 33/33/33
f 33/33/33 37/37/37 35/35/35
f 36/36/36 34/34/34 35/35/35
f 33/33/33 35/35/35 34/34/34
f 34/34/34 32/32/32 33/33/33
f 32/32/32 29/29/29 33/33/33
f 32/32/32 31/31/31 29/29/29
f 31/31/31 30/30/30 29/29/29
f 30/30/30 26/26/26 29/29/29
f 29/29/29 26/26/26 28/28/28
f 26/26/26 27/27/27 28/28/28

